<svg width="36" height="36" viewBox="0 0 36 36" fill="none" xmlns="http://www.w3.org/2000/svg">
<rect width="36" height="36" rx="18" fill="white"/>
<path d="M18 6C11.373 6 6 7.6785 6 9.75V12.75C6 14.8215 11.373 16.5 18 16.5C24.627 16.5 30 14.8215 30 12.75V9.75C30 7.6785 24.627 6 18 6Z" fill="black"/>
<path d="M18 18.75C11.373 18.75 6 17.0715 6 15V19.5C6 21.5715 11.373 23.25 18 23.25C24.627 23.25 30 21.5715 30 19.5V15C30 17.0715 24.627 18.75 18 18.75Z" fill="black"/>
<path d="M18 25.5C11.373 25.5 6 23.8215 6 21.75V26.25C6 28.3215 11.373 30 18 30C24.627 30 30 28.3215 30 26.25V21.75C30 23.8215 24.627 25.5 18 25.5Z" fill="black"/>
</svg>
