<svg width="36" height="36" viewBox="0 0 36 36" fill="none" xmlns="http://www.w3.org/2000/svg">
<rect width="36" height="36" rx="18" fill="#FFB002"/>
<path d="M9 27H30V30H6V6H9V27ZM12.75 25.5C11.508 25.5 10.5 24.492 10.5 23.25C10.5 22.008 11.508 21 12.75 21C12.816 21 12.882 21.003 12.9465 21.009L15.3645 16.9785C15.1335 16.626 15 16.203 15 15.75C15 14.508 16.008 13.5 17.25 13.5C18.492 13.5 19.5 14.508 19.5 15.75C19.5 16.203 19.365 16.6245 19.1355 16.9785L21.5535 21.009C21.618 21.003 21.684 21 21.75 21C21.7995 21 21.849 21.0015 21.8985 21.006L25.8915 14.019C25.644 13.6575 25.5 13.221 25.5 12.7515C25.5 11.5095 26.508 10.5015 27.75 10.5015C28.992 10.5015 30 11.5095 30 12.7515C30 13.9935 28.992 15.0015 27.75 15.0015C27.7005 15.0015 27.651 15 27.6015 14.9955L23.6085 21.9825C23.856 22.344 24 22.7805 24 23.25C24 24.492 22.992 25.5 21.75 25.5C20.508 25.5 19.5 24.492 19.5 23.25C19.5 22.797 19.635 22.3755 19.8645 22.0215L17.4465 17.991C17.382 17.997 17.316 18 17.25 18C17.184 18 17.118 17.997 17.0535 17.991L14.6355 22.0215C14.8665 22.374 15 22.797 15 23.25C15 24.492 13.992 25.5 12.75 25.5Z" fill="black"/>
</svg>
